:SAMPLES-PER-SECOND 30
:FULLY-SPECIFIED
:DEGREES
517
root  -6.29512 40.1052 -12.7932 -134.225 -85.5878 132.384
RightUpLeg  7.41635 -13.0404 -5.42434
RightLeg  12.9354 -7.7678 3.71878
RightFoot  -15.8058 -0.163321 -1.43403
RightToes  0.00048216 0.542163 -0.142577
Spine  5.82203 1.83769 13.2912
Spine1  12.6577 5.81501 -10.8381
HEad  9.25676 26.2859 -12.5651
LeftShoulder1  9.26968 -13.1752 -48.5184
LeftArm  -5.93769 22.8718 -28.864
LeftForeArm  21.5287 -18.7617 -4.1936
LeftHand  -0.25398 0.0180481 5.50724
RightShoulder  6.21733 10.182 39.3266
RightArm  9.09384 3.20227 40.2533
RightForeArm  2.09569 20.3041 5.33758
RightHand  -0.907837 2.3469 -13.8163
LeftUpLeg  -13.8471 -1.21249 -4.58528
LeftLeg  -3.96844 18.3422 -7.54678
LeftFoot  0.312044 0.61473 -6.04041
LeftToes  1.06248e-005 4.65855e-005 -8.185e-006
518
root  -5.69516 40.3507 -12.6383 -127.661 -85.1582 125.841
RightUpLeg  6.79214 -12.1368 -6.02666
RightLeg  11.7132 -8.63721 3.93097
RightFoot  -13.8987 -0.126616 -1.46106
RightToes  0.00048216 0.542163 -0.142577
Spine  5.76094 1.80427 11.5711
Spine1  12.1902 5.32043 -9.65687
HEad  7.7866 22.9688 -11.8292
LeftShoulder1  9.09534 -13.1636 -47.6294
LeftArm  -6.01166 23.0972 -28.4044
LeftForeArm  20.8386 -19.5755 -4.05443
LeftHand  -0.25398 0.0180481 5.50724
RightShoulder  6.23029 10.1591 39.4893
RightArm  3.24953 -0.514501 39.7972
RightForeArm  8.95412 14.6683 6.97534
RightHand  -0.795237 1.67143 -13.2278
LeftUpLeg  -13.6942 -0.600078 -4.53079
LeftLeg  -0.740236 18.9704 -6.44294
LeftFoot  -0.247423 0.437289 -4.4877
LeftToes  1.06248e-005 4.65855e-005 -8.185e-006
519
root  -5.16961 40.5189 -12.454 -127.127 -84.6068 125.363
RightUpLeg  6.13439 -11.4297 -6.51604
RightLeg  10.7301 -9.01754 4.08864
RightFoot  -12.5096 -0.100553 -1.57702
RightToes  0.00048216 0.542163 -0.142577
Spine  5.81541 1.83205 10.6885
Spine1  11.4248 5.13202 -9.23177
HEad  5.80068 20.0278 -11.2694
LeftShoulder1  8.98924 -13.2079 -46.936
LeftArm  -5.9582 23.1605 -27.2563
LeftForeArm  20.2899 -20.3202 -3.96222
LeftHand  -0.25398 0.0180481 5.50724
RightShoulder  6.25722 10.2037 39.535
RightArm  -3.03341 -4.56935 39.157
RightForeArm  15.7121 9.30912 7.70578
RightHand  -0.601183 0.439122 -12.0118
LeftUpLeg  -13.4816 2.04601 -4.48911
LeftLeg  3.90315 17.2875 -4.34461
LeftFoot  -1.3889 0.355009 -3.98517
LeftToes  1.06248e-005 4.65855e-005 -8.185e-006
520
root  -4.70029 40.6251 -12.2363 -131.533 -83.8987 129.757
RightUpLeg  5.44891 -11.1575 -6.89861
RightLeg  10.1331 -8.67251 4.10764
RightFoot  -11.4959 -0.0802229 -1.76223
RightToes  0.00048216 0.542163 -0.142577
Spine  5.99664 1.9268 10.4136
Spine1  10.665 5.20097 -9.23426
HEad  3.49327 17.7326 -11.0949
LeftShoulder1  8.92264 -13.2001 -46.6019
LeftArm  -5.91142 22.9185 -25.631
LeftForeArm  19.9445 -20.924 -3.91039
LeftHand  -0.25398 0.0180481 5.50724
RightShoulder  6.30426 10.2999 39.5565
RightArm  -5.50776 -8.71315 38.1217
RightForeArm  18.9056 5.7216 7.22177
RightHand  -0.358399 -1.42665 -10.2301
LeftUpLeg  -12.9038 7.3993 -4.77535
LeftLeg  8.62584 12.1219 -1.50742
LeftFoot  -2.72094 0.298416 -3.74066
LeftToes  1.06248e-005 4.65855e-005 -8.185e-006
521
root  -4.2835 40.6654 -11.9792 -138.147 -83.2515 136.25
RightUpLeg  4.81474 -11.1888 -7.12135
RightLeg  9.95316 -7.85811 4.14114
RightFoot  -10.8397 -0.0655821 -1.78509
RightToes  0.00048216 0.542163 -0.142577
Spine  6.15593 1.93169 10.6285
Spine1  10.1225 5.27506 -9.37255
HEad  1.14519 16.2691 -11.1295
LeftShoulder1  8.81708 -13.0775 -46.385
LeftArm  -6.43987 22.4536 -24.0983
LeftForeArm  19.9385 -21.2631 -3.8714
LeftHand  -0.25398 0.0180481 5.50724
RightShoulder  6.28792 10.3421 39.3114
RightArm  -5.55097 -12.8443 36.7558
RightForeArm  20.2655 4.25852 6.9435
RightHand  -0.161703 -3.47384 -8.68028
LeftUpLeg  -11.9396 11.9825 -4.3078
LeftLeg  12.9319 7.10056 0.993321
LeftFoot  -4.10706 0.242356 -3.4452
LeftToes  1.06248e-005 4.65855e-005 -8.185e-006
522
root  -3.91285 40.6529 -11.6822 -145.013 -82.9971 142.947
RightUpLeg  4.27597 -11.2657 -7.04786
RightLeg  9.99246 -7.16748 4.2804
RightFoot  -10.4043 -0.0567163 -1.67176
RightToes  0.00048216 0.542163 -0.142577
Spine  6.10751 1.68799 11.2152
Spine1  9.83767 5.1059 -9.42535
HEad  -0.998946 15.6382 -11.0133
LeftShoulder1  8.66908 -12.9106 -46.0605
LeftArm  -8.07719 22.0847 -23.1139
LeftForeArm  20.205 -21.4288 -3.81642
LeftHand  -0.25398 0.0180481 5.50724
RightShoulder  6.16119 10.2653 38.674
RightArm  -3.83539 -16.992 35.1537
RightForeArm  20.1735 4.89064 7.42269
RightHand  -0.0905654 -4.50575 -8.47574
LeftUpLeg  -10.3749 12.2194 -2.25755
LeftLeg  16.7667 5.86168 2.43837
LeftFoot  -5.59516 0.198822 -3.29313
LeftToes  1.06248e-005 4.65855e-005 -8.185e-006
523
root  -3.57295 40.6281 -11.3652 -151.525 -83.1927 149.275
RightUpLeg  3.85722 -11.2258 -6.67529
RightLeg  10.0176 -7.0053 4.41796
RightFoot  -9.89727 -0.046996 -1.58293
RightToes  0.00048216 0.542163 -0.142577
Spine  5.83068 1.21718 11.6672
Spine1  9.73181 4.58313 -9.05819
HEad  -2.74007 15.616 -10.6298
LeftShoulder1  8.54077 -12.799 -45.6768
LeftArm  -10.6385 22.1146 -22.7542
LeftForeArm  20.3742 -21.7706 -3.77136
LeftHand  -0.25398 0.0180481 5.50724
RightShoulder  5.95261 10.081 37.7821
RightArm  -0.565696 -20.9596 33.2499
RightForeArm  18.7694 7.00781 8.30948
RightHand  -0.144489 -3.9069 -9.49932
LeftUpLeg  -8.27084 9.42172 0.512412
LeftLeg  19.8912 7.15228 3.18042
LeftFoot  -6.96736 0.16338 -3.18238
LeftToes  1.06248e-005 4.65855e-005 -8.185e-006
524
root  -3.24937 40.6149 -11.0474 -157.594 -83.6848 155.129
RightUpLeg  3.55246 -11.0713 -6.17213
RightLeg  9.97701 -7.3552 4.45996
RightFoot  -9.23006 -0.035287 -1.47773
RightToes  0.00048216 0.542163 -0.142577
Spine  5.43685 0.637058 11.4975
Spine1  9.68455 3.72375 -8.01305
HEad  -3.9577 15.8509 -10.124
LeftShoulder1  8.4513 -12.7491 -45.3246
LeftArm  -13.2396 22.5639 -22.8714
LeftForeArm  20.1997 -22.5472 -3.82447
LeftHand  -0.25398 0.0180481 5.50724
RightShoulder  5.68993 9.80818 36.7412
RightArm  3.75356 -24.4209 31.2433
RightForeArm  15.9128 9.60572 8.79428
RightHand  -0.292808 -2.37406 -10.7814
LeftUpLeg  -5.88899 7.28293 2.92479
LeftLeg  21.9896 7.68011 3.71876
LeftFoot  -7.98712 0.13933 -3.12603
LeftToes  1.06248e-005 4.65855e-005 -8.185e-006
525
root  -2.9364 40.6089 -10.7228 -163.452 -84.3436 160.769
RightUpLeg  3.33417 -10.9043 -5.72457
RightLeg  9.86954 -7.94501 4.46291
RightFoot  -8.51581 -0.0273858 -1.23055
RightToes  0.00048216 0.542163 -0.142577
Spine  5.03739 0.0261822 10.8059
Spine1  9.56517 2.67742 -6.5247
HEad  -4.66055 16.0264 -9.5508
LeftShoulder1  8.3533 -12.7008 -44.9164
LeftArm  -15.0911 23.1905 -23.2994
LeftForeArm  19.9879 -23.676 -4.01554
LeftHand  -0.25398 0.0180481 5.50724
RightShoulder  5.38995 9.4644 35.5903
RightArm  7.46405 -27.3347 29.546
RightForeArm  11.425 11.7671 8.72325
RightHand  -0.477172 -0.889217 -12.1902
LeftUpLeg  -3.34238 6.41004 5.06931
LeftLeg  23.0383 7.29995 3.71517
LeftFoot  -8.92952 0.121791 -3.24365
LeftToes  1.06248e-005 4.65855e-005 -8.185e-006
526
root  -2.63584 40.6061 -10.3733 -169.692 -85.0542 166.818
RightUpLeg  3.17997 -10.7685 -5.40859
RightLeg  9.64379 -8.54361 4.48852
RightFoot  -7.79217 -0.0251862 -0.891552
RightToes  0.00048216 0.542163 -0.142577
Spine  4.67842 -0.533026 10.0689
Spine1  9.31274 1.6993 -5.16391
HEad  -4.99901 15.9158 -8.82635
LeftShoulder1  8.22069 -12.629 -44.3767
LeftArm  -16.1231 23.7165 -23.8823
LeftForeArm  20.3501 -24.9838 -4.27343
LeftHand  -0.25398 0.0180481 5.50724
RightShoulder  5.10701 9.11276 34.5256
RightArm  9.34976 -29.9327 28.3237
RightForeArm  5.45029 13.2127 8.55299
RightHand  -0.695704 0.292851 -14.2244
LeftUpLeg  -0.703724 6.6547 6.94467
LeftLeg  22.9257 6.1248 3.16148
LeftFoot  -9.99059 0.0994485 -3.35083
LeftToes  1.06248e-005 4.65855e-005 -8.185e-006
527
root  -2.3489 40.6051 -9.99032 -177.209 -85.7063 174.157
RightUpLeg  3.07024 -10.6591 -5.20554
RightLeg  9.32482 -9.08801 4.53508
RightFoot  -7.03101 -0.0243569 -0.617815
RightToes  0.00048216 0.542163 -0.142577
Spine  4.33716 -0.936921 9.55784
Spine1  9.04736 0.966793 -4.17149
HEad  -5.21314 15.3876 -8.00647
LeftShoulder1  8.09058 -12.5534 -43.8549
LeftArm  -16.8077 24.0014 -24.4913
LeftForeArm  21.5614 -26.5102 -4.54112
LeftHand  -0.25398 0.0180481 5.50724
RightShoulder  4.89818 8.82194 33.7945
RightArm  9.35002 -32.2707 27.494
RightForeArm  -0.677129 14.0157 8.45249
RightHand  -0.964457 1.33585 -16.7308
LeftUpLeg  2.08243 7.00026 8.43334
LeftLeg  21.3446 4.75235 2.37237
LeftFoot  -10.5511 0.0881257 -3.63238
LeftToes  1.06248e-005 4.65855e-005 -8.185e-006
528
root  -2.07009 40.598 -9.57252 172.307 -86.2938 -175.532
RightUpLeg  3.00439 -10.6069 -5.06762
RightLeg  8.94657 -9.62855 4.64832
RightFoot  -6.23212 -0.0216173 -0.461592
RightToes  0.00048216 0.542163 -0.142577
Spine  3.97312 -1.17698 9.22062
Spine1  8.92063 0.423716 -3.30356
HEad  -5.48506 14.4843 -7.27176
LeftShoulder1  8.0068 -12.4856 -43.5697
LeftArm  -17.5127 24.1003 -25.0828
LeftForeArm  23.3354 -28.3953 -4.86677
LeftHand  -0.25398 0.0180481 5.50724
RightShoulder  4.7558 8.59116 33.3775
RightArm  7.27543 -34.0893 27.0888
RightForeArm  -4.36078 13.9558 8.42171
RightHand  -1.21302 2.15636 -18.7731
LeftUpLeg  5.04828 7.20196 9.63814
LeftLeg  18.0075 3.43079 1.58255
LeftFoot  -10.0586 0.119272 -5.06764
LeftToes  1.06248e-005 4.65855e-005 -8.185e-006
529
root  -1.78639 40.5823 -9.10983 155.528 -86.8456 -158.847
RightUpLeg  2.96388 -10.599 -4.92946
RightLeg  8.41841 -10.2696 4.88861
RightFoot  -5.35225 -0.0187039 -0.336878
RightToes  0.00048216 0.542163 -0.142577
Spine  3.60768 -1.36409 8.97815
Spine1  8.80301 -0.112262 -2.37232
HEad  -5.82747 13.407 -6.62336
LeftShoulder1  7.97317 -12.4208 -43.5627
LeftArm  -18.095 24.1698 -25.6685
LeftForeArm  25.125 -30.5578 -5.26909
LeftHand  -0.25398 0.0180481 5.50724
RightShoulder  4.64498 8.39413 33.0983
RightArm  3.72179 -35.2042 27.2485
RightForeArm  -4.79596 12.9807 8.41724
RightHand  -1.33512 2.55035 -19.6252
LeftUpLeg  7.93366 7.86363 10.8208
LeftLeg  13.2426 2.26447 0.787725
LeftFoot  -9.22849 0.1944 -7.58897
LeftToes  1.06248e-005 4.65855e-005 -8.185e-006
530
root  -1.4756 40.5779 -8.59308 130.579 -87.2445 -133.852
RightUpLeg  2.90071 -10.5387 -4.83423
RightLeg  7.61259 -11.1587 5.16647
RightFoot  -4.28815 -0.0202931 -0.144469
RightToes  0.00048216 0.542163 -0.142577
Spine  3.38972 -1.57652 8.66108
Spine1  8.39227 -0.723658 -1.46493
HEad  -6.21731 12.3177 -5.88865
LeftShoulder1  7.97099 -12.363 -43.7173
LeftArm  -18.2846 24.2312 -26.2411
LeftForeArm  26.637 -32.603 -5.67709
LeftHand  -0.25398 0.0180481 5.50724
RightShoulder  4.58299 8.25124 33.0458
RightArm  0.29997 -35.7189 27.8179
RightForeArm  -3.65947 11.8012 8.29952
RightHand  -1.28371 2.39272 -19.2432
LeftUpLeg  10.1272 8.27657 11.6527
LeftLeg  8.32285 2.29073 -0.192431
LeftFoot  -9.14653 0.226283 -8.9405
LeftToes  1.06248e-005 4.65855e-005 -8.185e-006
531
root  -1.1128 40.6116 -8.04082 102.378 -87.4283 -105.557
RightUpLeg  2.79624 -10.4315 -5.06637
RightLeg  6.58096 -12.3362 5.29813
RightFoot  -3.01253 -0.0300766 0.130997
RightToes  0.00048216 0.542163 -0.142577
Spine  3.5399 -1.76113 7.72608
Spine1  7.6906 -1.35267 -0.493907
HEad  -6.79211 11.247 -5.0358
LeftShoulder1  7.98328 -12.3178 -43.9199
LeftArm  -18.077 24.1137 -26.7912
LeftForeArm  27.7747 -34.0919 -5.98462
LeftHand  -0.25398 0.0180481 5.50724
RightShoulder  4.60784 8.18171 33.4877
RightArm  -2.26817 -35.7551 28.5004
RightForeArm  -2.21673 11.4424 7.90111
RightHand  -1.05722 1.55476 -17.7221
LeftUpLeg  11.0797 7.71108 11.3746
LeftLeg  4.79227 3.48508 -1.13408
LeftFoot  -9.57545 0.173996 -7.53854
LeftToes  1.06248e-005 4.65855e-005 -8.185e-006
